<mxfile host="app.diagrams.net" modified="2023-09-20T20:39:23.810Z" agent="Mozilla/5.0 (X11; Linux x86_64) AppleWebKit/537.36 (KHTML, like Gecko) Chrome/117.0.0.0 Safari/537.36" version="21.8.0" etag="O73PSlpJdPKXWUwf_1IK" type="github">
  <diagram name="Page-1" id="0aORDNu3FcURMgkyUyE6">
    <mxGraphModel>
      <root>
        <mxCell id="0" />
        <mxCell id="1" parent="0" />
      </root>
    </mxGraphModel>
  </diagram>
</mxfile>
